# xmcd
# 
# Track frame offsets:
#     150
#     15500
#     33870
#     51522
#     69197
#     87262
#     103240
#     122295
# 
# Disc length: 1827
# 
# Revision: 0
# Processed by: cddbd v1.5.2PL0 Copyright (c) Steve Scherf et al.
# Submitted via: fre:ac v1.0.17
# 
DISCID=5b072108
DTITLE=Rebeca - Rebeca
DYEAR=1996
DGENRE=Pop
TTITLE0=Duro de pelar
TTITLE1=Cállate ya
TTITLE2=Corazón, corazón
TTITLE3=Más que un engaño
TTITLE4=Sólo amante
TTITLE5=No hay dos sin tres
TTITLE6=Duro de pelar (Nu-ngr mix)
TTITLE7=Corazón, corazón (Rock version)
EXTD=
EXTT0=
EXTT1=
EXTT2=
EXTT3=
EXTT4=
EXTT5=
EXTT6=
EXTT7=
PLAYORDER=
